<?xml version="1.0" encoding="utf-8"?>
<!-- Generator: Adobe Illustrator 23.0.1, SVG Export Plug-In . SVG Version: 6.00 Build 0)  -->
<svg version="1.1" id="Layer_1" xmlns="http://www.w3.org/2000/svg" xmlns:xlink="http://www.w3.org/1999/xlink" x="0px" y="0px"
	 viewBox="0 0 2000 2000" style="enable-background:new 0 0 2000 2000;" xml:space="preserve">
<style type="text/css">
	.st0{clip-path:url(#SVGID_2_);fill:url(#SVGID_3_);}
	.st1{clip-path:url(#SVGID_5_);fill:url(#SVGID_6_);}
	.st2{clip-path:url(#SVGID_8_);fill:url(#SVGID_9_);}
	.st3{clip-path:url(#SVGID_11_);fill:url(#SVGID_12_);}
	.st4{clip-path:url(#SVGID_14_);fill:url(#SVGID_15_);}
	.st5{clip-path:url(#SVGID_17_);fill:url(#SVGID_18_);}
	.st6{clip-path:url(#SVGID_20_);fill:url(#SVGID_21_);}
	.st7{clip-path:url(#SVGID_23_);fill:url(#SVGID_24_);}
	.st8{clip-path:url(#SVGID_26_);fill:url(#SVGID_27_);}
	.st9{clip-path:url(#SVGID_29_);fill:url(#SVGID_30_);}
	.st10{clip-path:url(#SVGID_32_);fill:url(#SVGID_33_);}
	.st11{clip-path:url(#SVGID_35_);fill:url(#SVGID_36_);}
	.st12{clip-path:url(#SVGID_38_);fill:url(#SVGID_39_);}
	.st13{clip-path:url(#SVGID_41_);fill:url(#SVGID_42_);}
	.st14{clip-path:url(#SVGID_44_);fill:url(#SVGID_45_);}
	.st15{clip-path:url(#SVGID_47_);fill:url(#SVGID_48_);}
	.st16{clip-path:url(#SVGID_50_);fill:url(#SVGID_51_);}
	.st17{clip-path:url(#SVGID_53_);fill:url(#SVGID_54_);}
	.st18{clip-path:url(#SVGID_56_);fill:url(#SVGID_57_);}
	.st19{clip-path:url(#SVGID_59_);fill:url(#SVGID_60_);}
	.st20{clip-path:url(#SVGID_62_);fill:url(#SVGID_63_);}
	.st21{clip-path:url(#SVGID_65_);fill:url(#SVGID_66_);}
	.st22{clip-path:url(#SVGID_68_);fill:url(#SVGID_69_);}
	.st23{clip-path:url(#SVGID_71_);fill:url(#SVGID_72_);}
	.st24{clip-path:url(#SVGID_74_);fill:url(#SVGID_75_);}
</style>
<g>
	<g>
		<defs>
			<path id="SVGID_1_" d="M672.49,1279.29c-5.96,4.74-8.93,11.08-8.93,18.97c0,7.46,2.46,13.23,7.4,17.26
				c4.96,4.03,12.45,7.15,22.44,9.33c8.71,1.9,14.92,4.28,18.63,7.15c3.65,2.87,5.46,6.71,5.46,11.52c0,4.84-1.84,8.55-5.65,11.17
				c-3.74,2.65-9.33,3.96-16.67,3.96c-12.08,0-20.69-4.34-25.78-12.95l-9.27,7.36c6.4,10.74,17.98,16.1,34.89,16.1
				c10.92,0,19.41-2.37,25.5-7.12c6.09-4.71,9.14-11.27,9.14-19.63c0-7.61-2.25-13.58-6.71-17.85c-4.43-4.28-12.11-7.71-23-10.36
				c-9.39-2.28-15.76-4.49-19.16-6.65c-3.4-2.18-5.12-5.52-5.12-9.99c0-4.71,1.75-8.43,5.24-11.02c3.53-2.62,8.49-3.96,14.92-3.96
				c5.68,0,10.3,1.19,13.98,3.62c3.68,2.4,5.52,5.99,5.52,10.7c0,1.09-0.12,2.34-0.44,3.81l11.77,0.13
				c0.44-1.44,0.66-3.03,0.66-4.74c0-8.18-2.97-14.26-8.9-18.16c-5.99-3.9-13.48-5.84-22.6-5.84
				C686.22,1272.12,678.42,1274.49,672.49,1279.29"/>
		</defs>
		<clipPath id="SVGID_2_">
			<use xlink:href="#SVGID_1_"  style="overflow:visible;"/>
		</clipPath>
		
			<linearGradient id="SVGID_3_" gradientUnits="userSpaceOnUse" x1="1315.9451" y1="1962.3662" x2="1347.1538" y2="1962.3662" gradientTransform="matrix(293.3186 1.8042 1.8042 -293.3186 -389756.4063 574539.25)">
			<stop  offset="0" style="stop-color:#A45A26"/>
			<stop  offset="0.2617" style="stop-color:#F9DC7A"/>
			<stop  offset="0.3726" style="stop-color:#FCF6AC"/>
			<stop  offset="0.4775" style="stop-color:#F9DC7A"/>
			<stop  offset="0.5061" style="stop-color:#DDBC62"/>
			<stop  offset="0.5546" style="stop-color:#BD9744"/>
			<stop  offset="0.6001" style="stop-color:#A87F33"/>
			<stop  offset="0.6412" style="stop-color:#9C732B"/>
			<stop  offset="0.6739" style="stop-color:#986E2A"/>
			<stop  offset="0.7185" style="stop-color:#9E732B"/>
			<stop  offset="0.7788" style="stop-color:#AD8333"/>
			<stop  offset="0.8482" style="stop-color:#C89F45"/>
			<stop  offset="0.9231" style="stop-color:#F7CF65"/>
			<stop  offset="0.957" style="stop-color:#FADF7B"/>
			<stop  offset="1" style="stop-color:#FFF392"/>
		</linearGradient>
		<polygon class="st0" points="660.14,1271.69 730.26,1272.12 729.66,1369.6 659.54,1369.17 		"/>
	</g>
	<g>
		<defs>
			<rect id="SVGID_4_" x="747.11" y="1272.96" width="12.23" height="95.37"/>
		</defs>
		<clipPath id="SVGID_5_">
			<use xlink:href="#SVGID_4_"  style="overflow:visible;"/>
		</clipPath>
		
			<linearGradient id="SVGID_6_" gradientUnits="userSpaceOnUse" x1="1315.9451" y1="1962.3673" x2="1347.1538" y2="1962.3673" gradientTransform="matrix(293.3186 1.8042 1.8042 -293.3186 -389756.4063 574539.25)">
			<stop  offset="0" style="stop-color:#A45A26"/>
			<stop  offset="0.2617" style="stop-color:#F9DC7A"/>
			<stop  offset="0.3726" style="stop-color:#FCF6AC"/>
			<stop  offset="0.4775" style="stop-color:#F9DC7A"/>
			<stop  offset="0.5061" style="stop-color:#DDBC62"/>
			<stop  offset="0.5546" style="stop-color:#BD9744"/>
			<stop  offset="0.6001" style="stop-color:#A87F33"/>
			<stop  offset="0.6412" style="stop-color:#9C732B"/>
			<stop  offset="0.6739" style="stop-color:#986E2A"/>
			<stop  offset="0.7185" style="stop-color:#9E732B"/>
			<stop  offset="0.7788" style="stop-color:#AD8333"/>
			<stop  offset="0.8482" style="stop-color:#C89F45"/>
			<stop  offset="0.9231" style="stop-color:#F7CF65"/>
			<stop  offset="0.957" style="stop-color:#FADF7B"/>
			<stop  offset="1" style="stop-color:#FFF392"/>
		</linearGradient>
		<polygon class="st1" points="747.11,1272.88 759.93,1272.96 759.35,1368.41 746.53,1368.33 		"/>
	</g>
	<g>
		<defs>
			<polygon id="SVGID_7_" points="839.52,1272.93 839.52,1347.86 837.74,1343.93 793.58,1272.93 783.06,1272.93 783.06,1368.33 
				794.64,1368.33 794.64,1293.77 796.3,1297.49 840.58,1368.33 851.1,1368.33 851.1,1272.93 			"/>
		</defs>
		<clipPath id="SVGID_8_">
			<use xlink:href="#SVGID_7_"  style="overflow:visible;"/>
		</clipPath>
		
			<linearGradient id="SVGID_9_" gradientUnits="userSpaceOnUse" x1="1315.9452" y1="1962.3688" x2="1347.1538" y2="1962.3688" gradientTransform="matrix(293.3186 1.8042 1.8042 -293.3186 -389756.4063 574539.25)">
			<stop  offset="0" style="stop-color:#A45A26"/>
			<stop  offset="0.2617" style="stop-color:#F9DC7A"/>
			<stop  offset="0.3726" style="stop-color:#FCF6AC"/>
			<stop  offset="0.4775" style="stop-color:#F9DC7A"/>
			<stop  offset="0.5061" style="stop-color:#DDBC62"/>
			<stop  offset="0.5546" style="stop-color:#BD9744"/>
			<stop  offset="0.6001" style="stop-color:#A87F33"/>
			<stop  offset="0.6412" style="stop-color:#9C732B"/>
			<stop  offset="0.6739" style="stop-color:#986E2A"/>
			<stop  offset="0.7185" style="stop-color:#9E732B"/>
			<stop  offset="0.7788" style="stop-color:#AD8333"/>
			<stop  offset="0.8482" style="stop-color:#C89F45"/>
			<stop  offset="0.9231" style="stop-color:#F7CF65"/>
			<stop  offset="0.957" style="stop-color:#FADF7B"/>
			<stop  offset="1" style="stop-color:#FFF392"/>
		</linearGradient>
		<polygon class="st2" points="783.07,1272.51 851.69,1272.93 851.1,1368.75 782.48,1368.33 		"/>
	</g>
	<g>
		<defs>
			<path id="SVGID_10_" d="M880.31,1285.25c-7.4,8.77-11.08,20.66-11.08,35.64c0,15.1,3.71,26.9,11.14,35.45
				c7.49,8.55,17.66,12.83,30.55,12.83c13.51,0,24.16-5.65,31.89-16.95l-8.21-6.8c-5.52,8.83-13.26,13.23-23.12,13.23
				c-9.02,0-16.14-3.31-21.35-9.96c-5.24-6.65-7.87-15.92-7.87-27.81c0-12.02,2.43-21.38,7.24-28.15
				c4.84-6.77,11.61-10.14,20.29-10.14c6.12,0,10.92,1.53,14.45,4.62c3.53,3.12,5.34,7.27,5.34,12.58c0,1.4-0.22,3.53-0.69,6.21
				h11.17c0.72-1.69,1.12-4.37,1.12-7.99c0-8.11-2.75-14.45-8.18-19.01c-5.49-4.62-12.95-6.9-22.5-6.9
				C897.76,1272.12,887.71,1276.52,880.31,1285.25"/>
		</defs>
		<clipPath id="SVGID_11_">
			<use xlink:href="#SVGID_10_"  style="overflow:visible;"/>
		</clipPath>
		
			<linearGradient id="SVGID_12_" gradientUnits="userSpaceOnUse" x1="1315.9451" y1="1962.3705" x2="1347.1538" y2="1962.3705" gradientTransform="matrix(293.3186 1.8042 1.8042 -293.3186 -389756.4063 574539.25)">
			<stop  offset="0" style="stop-color:#A45A26"/>
			<stop  offset="0.2617" style="stop-color:#F9DC7A"/>
			<stop  offset="0.3726" style="stop-color:#FCF6AC"/>
			<stop  offset="0.4775" style="stop-color:#F9DC7A"/>
			<stop  offset="0.5061" style="stop-color:#DDBC62"/>
			<stop  offset="0.5546" style="stop-color:#BD9744"/>
			<stop  offset="0.6001" style="stop-color:#A87F33"/>
			<stop  offset="0.6412" style="stop-color:#9C732B"/>
			<stop  offset="0.6739" style="stop-color:#986E2A"/>
			<stop  offset="0.7185" style="stop-color:#9E732B"/>
			<stop  offset="0.7788" style="stop-color:#AD8333"/>
			<stop  offset="0.8482" style="stop-color:#C89F45"/>
			<stop  offset="0.9231" style="stop-color:#F7CF65"/>
			<stop  offset="0.957" style="stop-color:#FADF7B"/>
			<stop  offset="1" style="stop-color:#FFF392"/>
		</linearGradient>
		<polygon class="st3" points="869.23,1271.66 943.42,1272.12 942.82,1369.63 868.63,1369.17 		"/>
	</g>
	<g>
		<defs>
			<polygon id="SVGID_13_" points="958.61,1272.93 958.61,1368.33 1019.1,1368.33 1019.1,1356.85 970.88,1356.85 970.88,1325.36 
				1011.6,1325.36 1011.6,1313.97 970.88,1313.97 970.88,1284.38 1019.1,1284.38 1019.1,1272.93 			"/>
		</defs>
		<clipPath id="SVGID_14_">
			<use xlink:href="#SVGID_13_"  style="overflow:visible;"/>
		</clipPath>
		
			<linearGradient id="SVGID_15_" gradientUnits="userSpaceOnUse" x1="1315.9451" y1="1962.3722" x2="1347.1538" y2="1962.3722" gradientTransform="matrix(293.3186 1.8042 1.8042 -293.3186 -389756.4063 574539.1875)">
			<stop  offset="0" style="stop-color:#A45A26"/>
			<stop  offset="0.2617" style="stop-color:#F9DC7A"/>
			<stop  offset="0.3726" style="stop-color:#FCF6AC"/>
			<stop  offset="0.4775" style="stop-color:#F9DC7A"/>
			<stop  offset="0.5061" style="stop-color:#DDBC62"/>
			<stop  offset="0.5546" style="stop-color:#BD9744"/>
			<stop  offset="0.6001" style="stop-color:#A87F33"/>
			<stop  offset="0.6412" style="stop-color:#9C732B"/>
			<stop  offset="0.6739" style="stop-color:#986E2A"/>
			<stop  offset="0.7185" style="stop-color:#9E732B"/>
			<stop  offset="0.7788" style="stop-color:#AD8333"/>
			<stop  offset="0.8482" style="stop-color:#C89F45"/>
			<stop  offset="0.9231" style="stop-color:#F7CF65"/>
			<stop  offset="0.957" style="stop-color:#FADF7B"/>
			<stop  offset="1" style="stop-color:#FFF392"/>
		</linearGradient>
		<polygon class="st4" points="958.61,1272.55 1019.68,1272.93 1019.09,1368.7 958.03,1368.33 		"/>
	</g>
	<g>
		<defs>
			<path id="SVGID_16_" d="M1080.01,1272.93c0,4.81-2,8.83-6.02,11.98c-4.06,3.18-9.64,4.81-16.7,4.81v11.14
				c10.27,0,17.85-2.9,22.72-8.71v76.18h12.14v-95.4H1080.01z"/>
		</defs>
		<clipPath id="SVGID_17_">
			<use xlink:href="#SVGID_16_"  style="overflow:visible;"/>
		</clipPath>
		
			<linearGradient id="SVGID_18_" gradientUnits="userSpaceOnUse" x1="1315.9451" y1="1962.3739" x2="1347.1538" y2="1962.3739" gradientTransform="matrix(293.3186 1.8042 1.8042 -293.3186 -389756.4063 574539.1875)">
			<stop  offset="0" style="stop-color:#A45A26"/>
			<stop  offset="0.2617" style="stop-color:#F9DC7A"/>
			<stop  offset="0.3726" style="stop-color:#FCF6AC"/>
			<stop  offset="0.4775" style="stop-color:#F9DC7A"/>
			<stop  offset="0.5061" style="stop-color:#DDBC62"/>
			<stop  offset="0.5546" style="stop-color:#BD9744"/>
			<stop  offset="0.6001" style="stop-color:#A87F33"/>
			<stop  offset="0.6412" style="stop-color:#9C732B"/>
			<stop  offset="0.6739" style="stop-color:#986E2A"/>
			<stop  offset="0.7185" style="stop-color:#9E732B"/>
			<stop  offset="0.7788" style="stop-color:#AD8333"/>
			<stop  offset="0.8482" style="stop-color:#C89F45"/>
			<stop  offset="0.9231" style="stop-color:#F7CF65"/>
			<stop  offset="0.957" style="stop-color:#FADF7B"/>
			<stop  offset="1" style="stop-color:#FFF392"/>
		</linearGradient>
		<polygon class="st5" points="1057.3,1272.71 1092.74,1272.93 1092.15,1368.55 1056.71,1368.33 		"/>
	</g>
	<g>
		<defs>
			<path id="SVGID_19_" d="M1121.99,1302.36c0-6.09,1.84-10.83,5.46-14.32c3.68-3.4,8.55-5.15,14.73-5.15
				c13.11,0,20.82,8.58,23.16,25.75c-2.43,3.46-5.84,6.49-10.11,9.08c-4.34,2.59-8.99,3.87-13.98,3.87
				C1128.42,1321.58,1121.99,1315.18,1121.99,1302.36 M1118.56,1280.82c-6.05,5.81-9.08,13.54-9.08,23.19
				c0,9.18,2.74,16.26,8.24,21.25c5.52,4.99,12.76,7.49,21.75,7.49c11.08,0,19.94-4.24,26.56-12.67c0,13.26-2.18,22.97-6.59,29.15
				c-4.43,6.18-10.2,9.27-17.38,9.27c-4.99,0-8.99-0.75-12.02-2.31c-3-1.56-5.77-4.24-8.43-8.15l-9.43,7.49
				c5.74,9.08,15.7,13.64,29.87,13.64c11.08,0,19.91-4.24,26.43-12.7c6.52-8.43,9.83-21.13,9.83-38.04
				c0-14.92-3.06-26.31-9.08-34.33c-6.05-7.99-14.98-11.98-26.81-11.98C1132.54,1272.12,1124.58,1275.02,1118.56,1280.82"/>
		</defs>
		<clipPath id="SVGID_20_">
			<use xlink:href="#SVGID_19_"  style="overflow:visible;"/>
		</clipPath>
		
			<linearGradient id="SVGID_21_" gradientUnits="userSpaceOnUse" x1="1315.9452" y1="1962.3752" x2="1347.1538" y2="1962.3752" gradientTransform="matrix(293.3186 1.8042 1.8042 -293.3186 -389756.4063 574539.1875)">
			<stop  offset="0" style="stop-color:#A45A26"/>
			<stop  offset="0.2617" style="stop-color:#F9DC7A"/>
			<stop  offset="0.3726" style="stop-color:#FCF6AC"/>
			<stop  offset="0.4775" style="stop-color:#F9DC7A"/>
			<stop  offset="0.5061" style="stop-color:#DDBC62"/>
			<stop  offset="0.5546" style="stop-color:#BD9744"/>
			<stop  offset="0.6001" style="stop-color:#A87F33"/>
			<stop  offset="0.6412" style="stop-color:#9C732B"/>
			<stop  offset="0.6739" style="stop-color:#986E2A"/>
			<stop  offset="0.7185" style="stop-color:#9E732B"/>
			<stop  offset="0.7788" style="stop-color:#AD8333"/>
			<stop  offset="0.8482" style="stop-color:#C89F45"/>
			<stop  offset="0.9231" style="stop-color:#F7CF65"/>
			<stop  offset="0.957" style="stop-color:#FADF7B"/>
			<stop  offset="1" style="stop-color:#FFF392"/>
		</linearGradient>
		<polygon class="st6" points="1109.48,1271.69 1178.92,1272.12 1178.32,1369.6 1108.88,1369.17 		"/>
	</g>
	<g>
		<defs>
			<polygon id="SVGID_22_" points="1222.17,1272.93 1187.96,1336.59 1187.96,1347.08 1232.97,1347.08 1232.97,1368.33 
				1245.11,1368.33 1245.11,1347.08 1258.87,1347.08 1258.87,1336.59 1245.11,1336.59 1245.11,1314.09 1232.81,1314.09 
				1232.81,1336.59 1201.07,1336.59 1234.75,1272.93 			"/>
		</defs>
		<clipPath id="SVGID_23_">
			<use xlink:href="#SVGID_22_"  style="overflow:visible;"/>
		</clipPath>
		
			<linearGradient id="SVGID_24_" gradientUnits="userSpaceOnUse" x1="1315.9451" y1="1962.377" x2="1347.1538" y2="1962.377" gradientTransform="matrix(293.3186 1.8042 1.8042 -293.3186 -389756.4063 574539.1875)">
			<stop  offset="0" style="stop-color:#A45A26"/>
			<stop  offset="0.2617" style="stop-color:#F9DC7A"/>
			<stop  offset="0.3726" style="stop-color:#FCF6AC"/>
			<stop  offset="0.4775" style="stop-color:#F9DC7A"/>
			<stop  offset="0.5061" style="stop-color:#DDBC62"/>
			<stop  offset="0.5546" style="stop-color:#BD9744"/>
			<stop  offset="0.6001" style="stop-color:#A87F33"/>
			<stop  offset="0.6412" style="stop-color:#9C732B"/>
			<stop  offset="0.6739" style="stop-color:#986E2A"/>
			<stop  offset="0.7185" style="stop-color:#9E732B"/>
			<stop  offset="0.7788" style="stop-color:#AD8333"/>
			<stop  offset="0.8482" style="stop-color:#C89F45"/>
			<stop  offset="0.9231" style="stop-color:#F7CF65"/>
			<stop  offset="0.957" style="stop-color:#FADF7B"/>
			<stop  offset="1" style="stop-color:#FFF392"/>
		</linearGradient>
		<polygon class="st7" points="1187.97,1272.49 1259.46,1272.93 1258.87,1368.77 1187.38,1368.33 		"/>
	</g>
	<g>
		<defs>
			<path id="SVGID_25_" d="M1281.9,1336.44c2.34-3.99,5.65-7.3,9.92-9.92c4.28-2.65,9.05-3.99,14.29-3.99
				c6.12,0,10.71,1.53,13.79,4.56c3.09,3.06,4.65,7.4,4.65,13.05c0,5.62-1.81,10.08-5.4,13.36c-3.59,3.28-8.68,4.93-15.2,4.93
				C1291.86,1358.41,1284.49,1351.07,1281.9,1336.44 M1278.56,1284.72c-6.9,8.36-10.33,20.91-10.33,37.54
				c0,15.07,3.03,26.65,8.96,34.77c5.93,8.05,14.79,12.14,26.47,12.14c10.24,0,18.29-2.84,24.37-8.55
				c6.02-5.68,9.05-13.11,9.05-22.28c0-8.8-2.46-15.51-7.4-20.19c-4.99-4.62-11.8-6.93-20.53-6.93c-11.99,0-21.47,4.28-28.49,12.83
				v-3.03c0-25.4,8.46-38.14,25.37-38.14c4.62,0,8.27,1.12,11.05,3.4c2.68,2.28,4.06,5.56,4.06,9.83c0,1.09-0.13,2.59-0.41,4.49
				h11.58c0.56-2.12,0.81-4.49,0.81-7.24c0-6.62-2.43-11.83-7.33-15.64c-4.93-3.74-11.55-5.62-19.94-5.62
				C1294.51,1272.12,1285.37,1276.3,1278.56,1284.72"/>
		</defs>
		<clipPath id="SVGID_26_">
			<use xlink:href="#SVGID_25_"  style="overflow:visible;"/>
		</clipPath>
		
			<linearGradient id="SVGID_27_" gradientUnits="userSpaceOnUse" x1="1315.9451" y1="1962.3785" x2="1347.1538" y2="1962.3785" gradientTransform="matrix(293.3186 1.8042 1.8042 -293.3186 -389756.4063 574539.125)">
			<stop  offset="0" style="stop-color:#A45A26"/>
			<stop  offset="0.2617" style="stop-color:#F9DC7A"/>
			<stop  offset="0.3726" style="stop-color:#FCF6AC"/>
			<stop  offset="0.4775" style="stop-color:#F9DC7A"/>
			<stop  offset="0.5061" style="stop-color:#DDBC62"/>
			<stop  offset="0.5546" style="stop-color:#BD9744"/>
			<stop  offset="0.6001" style="stop-color:#A87F33"/>
			<stop  offset="0.6412" style="stop-color:#9C732B"/>
			<stop  offset="0.6739" style="stop-color:#986E2A"/>
			<stop  offset="0.7185" style="stop-color:#9E732B"/>
			<stop  offset="0.7788" style="stop-color:#AD8333"/>
			<stop  offset="0.8482" style="stop-color:#C89F45"/>
			<stop  offset="0.9231" style="stop-color:#F7CF65"/>
			<stop  offset="0.957" style="stop-color:#FADF7B"/>
			<stop  offset="1" style="stop-color:#FFF392"/>
		</linearGradient>
		<polygon class="st8" points="1268.24,1271.69 1337.68,1272.12 1337.08,1369.6 1267.64,1369.17 		"/>
	</g>
	<g>
		<defs>
			<path id="SVGID_28_" d="M473.57,794.31V667.45v-8.08h8.18h13.86c10.33,0,20.04,1.5,28.59,4.81c8.89,3.5,16.57,8.52,23.03,15.01
				c6.62,6.74,11.64,14.39,14.76,23.03c3.22,8.58,4.87,18.16,4.87,28.46c0,10.8-1.65,20.41-4.87,29.09
				c-3.12,8.52-8.05,16.32-14.57,23.09c-6.68,6.65-14.33,11.45-22.94,14.61c-8.61,3.25-18.29,4.93-28.52,4.93h-0.22h-13.98h-8.18
				V794.31z M495.6,633.62h-47.87V828.2h47.87c14.14,0,27.15-2.31,39.2-7.3c12.23-4.71,23.06-11.73,32.14-21l0.38-0.16
				c8.36-8.74,14.98-19.04,19.26-31.05c4.27-12.05,6.46-24.72,6.46-37.58c0-12.89-2.18-25.37-6.46-37.54
				c-4.28-12.23-10.89-22.66-19.26-31.18l-0.38-0.09c-9.33-9.52-20.07-16.45-32.14-21.44c-10.24-4.12-21.5-6.49-33.67-7.24H495.6z"
				/>
		</defs>
		<clipPath id="SVGID_29_">
			<use xlink:href="#SVGID_28_"  style="overflow:visible;"/>
		</clipPath>
		
			<linearGradient id="SVGID_30_" gradientUnits="userSpaceOnUse" x1="1315.9452" y1="1964.3087" x2="1347.1538" y2="1964.3087" gradientTransform="matrix(293.3186 1.8042 1.8042 -293.3186 -389756.2813 574520.4375)">
			<stop  offset="0" style="stop-color:#A45A26"/>
			<stop  offset="0.2617" style="stop-color:#F9DC7A"/>
			<stop  offset="0.3726" style="stop-color:#FCF6AC"/>
			<stop  offset="0.4775" style="stop-color:#F9DC7A"/>
			<stop  offset="0.5061" style="stop-color:#DDBC62"/>
			<stop  offset="0.5546" style="stop-color:#BD9744"/>
			<stop  offset="0.6001" style="stop-color:#A87F33"/>
			<stop  offset="0.6412" style="stop-color:#9C732B"/>
			<stop  offset="0.6739" style="stop-color:#986E2A"/>
			<stop  offset="0.7185" style="stop-color:#9E732B"/>
			<stop  offset="0.7788" style="stop-color:#AD8333"/>
			<stop  offset="0.8482" style="stop-color:#C89F45"/>
			<stop  offset="0.9231" style="stop-color:#F7CF65"/>
			<stop  offset="0.957" style="stop-color:#FADF7B"/>
			<stop  offset="1" style="stop-color:#FFF392"/>
		</linearGradient>
		<polygon class="st9" points="447.73,632.72 594.23,633.62 593.03,829.1 446.53,828.2 		"/>
	</g>
	<g>
		<defs>
			<polygon id="SVGID_31_" points="638.16,633.15 638.16,828.8 672.24,828.8 748.98,828.8 748.98,802.77 672.24,802.77 
				664.13,802.77 664.13,794.75 664.13,752.09 664.13,743.94 672.24,743.94 727.73,743.94 727.73,718.04 672.24,718.04 
				664.13,718.04 664.13,709.83 664.13,667.17 664.13,658.96 672.24,658.96 748.98,658.96 748.98,633.15 			"/>
		</defs>
		<clipPath id="SVGID_32_">
			<use xlink:href="#SVGID_31_"  style="overflow:visible;"/>
		</clipPath>
		
			<linearGradient id="SVGID_33_" gradientUnits="userSpaceOnUse" x1="1315.9452" y1="1964.312" x2="1347.1538" y2="1964.312" gradientTransform="matrix(293.3186 1.8042 1.8042 -293.3186 -389756.2813 574520.375)">
			<stop  offset="0" style="stop-color:#A45A26"/>
			<stop  offset="0.2617" style="stop-color:#F9DC7A"/>
			<stop  offset="0.3726" style="stop-color:#FCF6AC"/>
			<stop  offset="0.4775" style="stop-color:#F9DC7A"/>
			<stop  offset="0.5061" style="stop-color:#DDBC62"/>
			<stop  offset="0.5546" style="stop-color:#BD9744"/>
			<stop  offset="0.6001" style="stop-color:#A87F33"/>
			<stop  offset="0.6412" style="stop-color:#9C732B"/>
			<stop  offset="0.6739" style="stop-color:#986E2A"/>
			<stop  offset="0.7185" style="stop-color:#9E732B"/>
			<stop  offset="0.7788" style="stop-color:#AD8333"/>
			<stop  offset="0.8482" style="stop-color:#C89F45"/>
			<stop  offset="0.9231" style="stop-color:#F7CF65"/>
			<stop  offset="0.957" style="stop-color:#FADF7B"/>
			<stop  offset="1" style="stop-color:#FFF392"/>
		</linearGradient>
		<polygon class="st10" points="638.17,632.47 750.19,633.16 748.98,829.48 636.96,828.79 		"/>
	</g>
	<g>
		<defs>
			<path id="SVGID_34_" d="M821.64,636.3c-6.9,2.9-12.95,6.93-18.23,12.23c-5.12,5.06-9.15,10.99-11.92,17.79
				c-3.03,6.9-4.46,14.26-4.46,21.78c0,5.71,0.97,11.2,2.9,16.51c1.94,5.09,4.62,9.83,7.99,13.86c5.15,6.24,10.92,11.02,17.57,14.92
				c6.77,3.87,14.54,6.77,23.06,9.27c3.84,1,7.46,2.15,10.61,3.25c3.18,1.12,6.49,2.65,10.08,4.46c3.43,1.9,6.46,3.9,8.93,5.96
				c2.28,2.22,4.27,4.84,5.83,7.87c1.53,3.09,2.28,6.18,2.12,9.83c0,4.18-0.84,8.08-2.84,11.67c-1.9,3.78-4.5,6.87-7.49,9.36
				c-3.12,2.43-6.74,4.49-10.49,6.09c-3.87,1.47-7.83,2.34-11.8,2.72c-6.68,0-12.79-1.81-18.54-5.56
				c-6.02-3.78-10.08-8.64-12.61-14.42l-26.03,5.59c2.46,7.99,6.68,15.17,12.45,21.38c5.84,6.15,12.7,11.14,20.47,14.54
				c7.8,3.4,15.95,5.02,24.25,5.02c7.55,0,15.07-1.31,22.28-4.34c7.21-2.9,13.55-6.8,19.07-11.83c5.37-4.96,9.8-10.95,13.17-17.94
				c3.28-6.96,4.96-14.29,4.96-22c0-5.15-0.84-10.11-2.56-14.79c-1.66-4.74-3.93-8.83-6.71-12.73c-3.03-3.68-6.34-7.18-10.17-10.27
				c-3.93-3.28-8.21-5.9-12.36-8.27c-4.28-2.4-8.86-4.21-13.61-5.99c-1.47-0.31-3.65-1.06-6.24-2.12c-2.78-0.75-5.18-1.4-7.27-2.09
				c-1.97-0.66-4.31-1.62-7.02-2.59c-2.81-1.19-5.21-2.28-7.15-3.25c-2.09-1.12-4.03-2.62-6.21-4.15c-2.06-1.75-3.9-3.4-5.15-5.27
				c-1.4-1.69-2.5-3.84-3.4-6.4c-0.84-2.43-1.37-5.12-1.37-8.02c0-3.93,0.97-7.68,2.59-11.3c1.5-3.74,3.56-6.96,6.37-9.71
				c2.62-2.78,5.9-4.96,9.52-6.27c3.68-1.72,7.52-2.5,11.36-2.5c8.08,0,15.04,3.03,20.94,8.77c3.25,3.4,5.62,7.05,7.05,11.08
				l26.06-5.52c-3.21-10.8-8.83-20.01-17.32-27.21c-5.06-4.28-10.8-7.61-17.07-10.17c-6.34-2.37-12.83-3.59-19.75-3.59
				C835.68,631.93,828.47,633.49,821.64,636.3"/>
		</defs>
		<clipPath id="SVGID_35_">
			<use xlink:href="#SVGID_34_"  style="overflow:visible;"/>
		</clipPath>
		
			<linearGradient id="SVGID_36_" gradientUnits="userSpaceOnUse" x1="1315.9452" y1="1964.3145" x2="1347.1538" y2="1964.3145" gradientTransform="matrix(293.3186 1.8042 1.8042 -293.3186 -389756.2813 574520.375)">
			<stop  offset="0" style="stop-color:#A45A26"/>
			<stop  offset="0.2617" style="stop-color:#F9DC7A"/>
			<stop  offset="0.3726" style="stop-color:#FCF6AC"/>
			<stop  offset="0.4775" style="stop-color:#F9DC7A"/>
			<stop  offset="0.5061" style="stop-color:#DDBC62"/>
			<stop  offset="0.5546" style="stop-color:#BD9744"/>
			<stop  offset="0.6001" style="stop-color:#A87F33"/>
			<stop  offset="0.6412" style="stop-color:#9C732B"/>
			<stop  offset="0.6739" style="stop-color:#986E2A"/>
			<stop  offset="0.7185" style="stop-color:#9E732B"/>
			<stop  offset="0.7788" style="stop-color:#AD8333"/>
			<stop  offset="0.8482" style="stop-color:#C89F45"/>
			<stop  offset="0.9231" style="stop-color:#F7CF65"/>
			<stop  offset="0.957" style="stop-color:#FADF7B"/>
			<stop  offset="1" style="stop-color:#FFF392"/>
		</linearGradient>
		<polygon class="st11" points="786.35,631.22 904.22,631.94 903,831.14 785.12,830.41 		"/>
	</g>
	<g>
		<defs>
			<polygon id="SVGID_37_" points="948.07,633.15 948.07,828.8 982.27,828.8 1058.95,828.8 1058.95,802.77 982.27,802.77 
				974.19,802.77 974.19,794.75 974.19,752.09 974.19,743.94 982.27,743.94 1037.76,743.94 1037.76,718.04 982.27,718.04 
				974.19,718.04 974.19,709.83 974.19,667.17 974.19,658.96 982.27,658.96 1058.95,658.96 1058.95,633.15 			"/>
		</defs>
		<clipPath id="SVGID_38_">
			<use xlink:href="#SVGID_37_"  style="overflow:visible;"/>
		</clipPath>
		
			<linearGradient id="SVGID_39_" gradientUnits="userSpaceOnUse" x1="1315.9451" y1="1964.3184" x2="1347.1538" y2="1964.3184" gradientTransform="matrix(293.3186 1.8042 1.8042 -293.3186 -389756.2813 574520.3125)">
			<stop  offset="0" style="stop-color:#A45A26"/>
			<stop  offset="0.2617" style="stop-color:#F9DC7A"/>
			<stop  offset="0.3726" style="stop-color:#FCF6AC"/>
			<stop  offset="0.4775" style="stop-color:#F9DC7A"/>
			<stop  offset="0.5061" style="stop-color:#DDBC62"/>
			<stop  offset="0.5546" style="stop-color:#BD9744"/>
			<stop  offset="0.6001" style="stop-color:#A87F33"/>
			<stop  offset="0.6412" style="stop-color:#9C732B"/>
			<stop  offset="0.6739" style="stop-color:#986E2A"/>
			<stop  offset="0.7185" style="stop-color:#9E732B"/>
			<stop  offset="0.7788" style="stop-color:#AD8333"/>
			<stop  offset="0.8482" style="stop-color:#C89F45"/>
			<stop  offset="0.9231" style="stop-color:#F7CF65"/>
			<stop  offset="0.957" style="stop-color:#FADF7B"/>
			<stop  offset="1" style="stop-color:#FFF392"/>
		</linearGradient>
		<polygon class="st12" points="948.07,632.47 1060.15,633.16 1058.94,829.48 946.86,828.79 		"/>
	</g>
	<g>
		<defs>
			<polygon id="SVGID_40_" points="1104.27,633.15 1104.27,828.8 1138.31,828.8 1214.96,828.8 1214.96,802.77 1138.31,802.77 
				1130.29,802.77 1130.29,794.75 1130.29,752.09 1130.29,743.94 1138.31,743.94 1193.83,743.94 1193.83,718.04 1138.31,718.04 
				1130.29,718.04 1130.29,709.83 1130.29,667.17 1130.29,658.96 1138.31,658.96 1214.96,658.96 1214.96,633.15 			"/>
		</defs>
		<clipPath id="SVGID_41_">
			<use xlink:href="#SVGID_40_"  style="overflow:visible;"/>
		</clipPath>
		
			<linearGradient id="SVGID_42_" gradientUnits="userSpaceOnUse" x1="1315.9451" y1="1964.3215" x2="1347.1538" y2="1964.3215" gradientTransform="matrix(293.3186 1.8042 1.8042 -293.3186 -389756.2813 574520.3125)">
			<stop  offset="0" style="stop-color:#A45A26"/>
			<stop  offset="0.2617" style="stop-color:#F9DC7A"/>
			<stop  offset="0.3726" style="stop-color:#FCF6AC"/>
			<stop  offset="0.4775" style="stop-color:#F9DC7A"/>
			<stop  offset="0.5061" style="stop-color:#DDBC62"/>
			<stop  offset="0.5546" style="stop-color:#BD9744"/>
			<stop  offset="0.6001" style="stop-color:#A87F33"/>
			<stop  offset="0.6412" style="stop-color:#9C732B"/>
			<stop  offset="0.6739" style="stop-color:#986E2A"/>
			<stop  offset="0.7185" style="stop-color:#9E732B"/>
			<stop  offset="0.7788" style="stop-color:#AD8333"/>
			<stop  offset="0.8482" style="stop-color:#C89F45"/>
			<stop  offset="0.9231" style="stop-color:#F7CF65"/>
			<stop  offset="0.957" style="stop-color:#FADF7B"/>
			<stop  offset="1" style="stop-color:#FFF392"/>
		</linearGradient>
		<polygon class="st13" points="1104.27,632.47 1216.17,633.16 1214.96,829.48 1103.06,828.79 		"/>
	</g>
	<g>
		<defs>
			<polygon id="SVGID_43_" points="1368.29,633.52 1332.27,702.43 1324.94,716.16 1317.73,702.43 1281.69,633.52 1252.25,633.52 
				1311.08,742.22 1312.11,745.97 1312.11,828.27 1337.92,828.27 1337.92,745.97 1338.74,742.22 1397.78,633.52 			"/>
		</defs>
		<clipPath id="SVGID_44_">
			<use xlink:href="#SVGID_43_"  style="overflow:visible;"/>
		</clipPath>
		
			<linearGradient id="SVGID_45_" gradientUnits="userSpaceOnUse" x1="1315.9452" y1="1964.3251" x2="1347.1538" y2="1964.3251" gradientTransform="matrix(293.3186 1.8042 1.8042 -293.3186 -389756.2813 574520.25)">
			<stop  offset="0" style="stop-color:#A45A26"/>
			<stop  offset="0.2617" style="stop-color:#F9DC7A"/>
			<stop  offset="0.3726" style="stop-color:#FCF6AC"/>
			<stop  offset="0.4775" style="stop-color:#F9DC7A"/>
			<stop  offset="0.5061" style="stop-color:#DDBC62"/>
			<stop  offset="0.5546" style="stop-color:#BD9744"/>
			<stop  offset="0.6001" style="stop-color:#A87F33"/>
			<stop  offset="0.6412" style="stop-color:#9C732B"/>
			<stop  offset="0.6739" style="stop-color:#986E2A"/>
			<stop  offset="0.7185" style="stop-color:#9E732B"/>
			<stop  offset="0.7788" style="stop-color:#AD8333"/>
			<stop  offset="0.8482" style="stop-color:#C89F45"/>
			<stop  offset="0.9231" style="stop-color:#F7CF65"/>
			<stop  offset="0.957" style="stop-color:#FADF7B"/>
			<stop  offset="1" style="stop-color:#FFF392"/>
		</linearGradient>
		<polygon class="st14" points="1252.26,632.63 1398.98,633.53 1397.78,829.16 1251.05,828.26 		"/>
	</g>
	<g>
		<defs>
			<path id="SVGID_46_" d="M1459.32,735.89c5.34-13.95,10.58-27.21,15.95-39.51c5.27,12.3,10.58,25.56,15.79,39.51
				c5.27,14.11,10.61,27.25,15.95,39.42h-31.86h-31.71C1448.59,763.13,1453.93,749.99,1459.32,735.89 M1391.54,828.2h27.87
				l14.36-31.99h41.38h41.35l14.45,31.99h27.93l-83.73-196.49L1391.54,828.2z"/>
		</defs>
		<clipPath id="SVGID_47_">
			<use xlink:href="#SVGID_46_"  style="overflow:visible;"/>
		</clipPath>
		
			<linearGradient id="SVGID_48_" gradientUnits="userSpaceOnUse" x1="1315.9451" y1="1964.3313" x2="1347.1538" y2="1964.3313" gradientTransform="matrix(293.3186 1.8042 1.8042 -293.3186 -389756.2813 574520.1875)">
			<stop  offset="0" style="stop-color:#A45A26"/>
			<stop  offset="0.2617" style="stop-color:#F9DC7A"/>
			<stop  offset="0.3726" style="stop-color:#FCF6AC"/>
			<stop  offset="0.4775" style="stop-color:#F9DC7A"/>
			<stop  offset="0.5061" style="stop-color:#DDBC62"/>
			<stop  offset="0.5546" style="stop-color:#BD9744"/>
			<stop  offset="0.6001" style="stop-color:#A87F33"/>
			<stop  offset="0.6412" style="stop-color:#9C732B"/>
			<stop  offset="0.6739" style="stop-color:#986E2A"/>
			<stop  offset="0.7185" style="stop-color:#9E732B"/>
			<stop  offset="0.7788" style="stop-color:#AD8333"/>
			<stop  offset="0.8482" style="stop-color:#C89F45"/>
			<stop  offset="0.9231" style="stop-color:#F7CF65"/>
			<stop  offset="0.957" style="stop-color:#FADF7B"/>
			<stop  offset="1" style="stop-color:#FFF392"/>
		</linearGradient>
		<polygon class="st15" points="1391.55,630.68 1560.09,631.72 1558.87,829.23 1390.33,828.2 		"/>
	</g>
	<g>
		<defs>
			<path id="SVGID_49_" d="M355.01,1037.68c5.31-14.11,10.58-27.21,15.98-39.54c5.21,12.33,10.52,25.44,15.85,39.54
				c5.18,14.14,10.46,27.12,15.73,39.42h-31.68h-31.83C344.36,1064.8,349.51,1051.81,355.01,1037.68 M287.16,1130.09h27.93
				l14.32-31.93h41.48h41.35l14.36,31.93h27.9L370.89,933.6L287.16,1130.09z"/>
		</defs>
		<clipPath id="SVGID_50_">
			<use xlink:href="#SVGID_49_"  style="overflow:visible;"/>
		</clipPath>
		
			<linearGradient id="SVGID_51_" gradientUnits="userSpaceOnUse" x1="1315.9451" y1="1963.3126" x2="1347.1538" y2="1963.3126" gradientTransform="matrix(293.3186 1.8042 1.8042 -293.3186 -389756.3438 574530.0625)">
			<stop  offset="0" style="stop-color:#A45A26"/>
			<stop  offset="0.2617" style="stop-color:#F9DC7A"/>
			<stop  offset="0.3726" style="stop-color:#FCF6AC"/>
			<stop  offset="0.4775" style="stop-color:#F9DC7A"/>
			<stop  offset="0.5061" style="stop-color:#DDBC62"/>
			<stop  offset="0.5546" style="stop-color:#BD9744"/>
			<stop  offset="0.6001" style="stop-color:#A87F33"/>
			<stop  offset="0.6412" style="stop-color:#9C732B"/>
			<stop  offset="0.6739" style="stop-color:#986E2A"/>
			<stop  offset="0.7185" style="stop-color:#9E732B"/>
			<stop  offset="0.7788" style="stop-color:#AD8333"/>
			<stop  offset="0.8482" style="stop-color:#C89F45"/>
			<stop  offset="0.9231" style="stop-color:#F7CF65"/>
			<stop  offset="0.957" style="stop-color:#FADF7B"/>
			<stop  offset="1" style="stop-color:#FFF392"/>
		</linearGradient>
		<polygon class="st16" points="287.16,932.57 455.71,933.6 454.49,1131.11 285.95,1130.08 		"/>
	</g>
	<g>
		<defs>
			<polygon id="SVGID_52_" points="564.32,935.37 528.06,1004.19 521.01,1017.98 513.76,1004.19 477.53,935.37 448.23,935.37 
				507.02,1043.95 507.96,1047.88 507.96,1130.3 533.89,1130.3 533.89,1047.88 534.8,1043.95 593.75,935.37 			"/>
		</defs>
		<clipPath id="SVGID_53_">
			<use xlink:href="#SVGID_52_"  style="overflow:visible;"/>
		</clipPath>
		
			<linearGradient id="SVGID_54_" gradientUnits="userSpaceOnUse" x1="1315.9452" y1="1963.3124" x2="1347.1538" y2="1963.3124" gradientTransform="matrix(293.3186 1.8042 1.8042 -293.3186 -389756.3438 574530.0625)">
			<stop  offset="0" style="stop-color:#A45A26"/>
			<stop  offset="0.2617" style="stop-color:#F9DC7A"/>
			<stop  offset="0.3726" style="stop-color:#FCF6AC"/>
			<stop  offset="0.4775" style="stop-color:#F9DC7A"/>
			<stop  offset="0.5061" style="stop-color:#DDBC62"/>
			<stop  offset="0.5546" style="stop-color:#BD9744"/>
			<stop  offset="0.6001" style="stop-color:#A87F33"/>
			<stop  offset="0.6412" style="stop-color:#9C732B"/>
			<stop  offset="0.6739" style="stop-color:#986E2A"/>
			<stop  offset="0.7185" style="stop-color:#9E732B"/>
			<stop  offset="0.7788" style="stop-color:#AD8333"/>
			<stop  offset="0.8482" style="stop-color:#C89F45"/>
			<stop  offset="0.9231" style="stop-color:#F7CF65"/>
			<stop  offset="0.957" style="stop-color:#FADF7B"/>
			<stop  offset="1" style="stop-color:#FFF392"/>
		</linearGradient>
		<polygon class="st17" points="448.23,934.48 594.95,935.38 593.74,1131.2 447.03,1130.3 		"/>
	</g>
	<g>
		<defs>
			<polygon id="SVGID_55_" points="1146.21,935.37 1090.5,1069.45 1034.89,935.37 1021.59,935.37 1007.92,935.37 1090.66,1131.86 
				1173.73,935.37 			"/>
		</defs>
		<clipPath id="SVGID_56_">
			<use xlink:href="#SVGID_55_"  style="overflow:visible;"/>
		</clipPath>
		
			<linearGradient id="SVGID_57_" gradientUnits="userSpaceOnUse" x1="1315.9452" y1="1963.3213" x2="1347.1538" y2="1963.3213" gradientTransform="matrix(293.3186 1.8042 1.8042 -293.3186 -389756.3438 574530)">
			<stop  offset="0" style="stop-color:#A45A26"/>
			<stop  offset="0.2617" style="stop-color:#F9DC7A"/>
			<stop  offset="0.3726" style="stop-color:#FCF6AC"/>
			<stop  offset="0.4775" style="stop-color:#F9DC7A"/>
			<stop  offset="0.5061" style="stop-color:#DDBC62"/>
			<stop  offset="0.5546" style="stop-color:#BD9744"/>
			<stop  offset="0.6001" style="stop-color:#A87F33"/>
			<stop  offset="0.6412" style="stop-color:#9C732B"/>
			<stop  offset="0.6739" style="stop-color:#986E2A"/>
			<stop  offset="0.7185" style="stop-color:#9E732B"/>
			<stop  offset="0.7788" style="stop-color:#AD8333"/>
			<stop  offset="0.8482" style="stop-color:#C89F45"/>
			<stop  offset="0.9231" style="stop-color:#F7CF65"/>
			<stop  offset="0.957" style="stop-color:#FADF7B"/>
			<stop  offset="1" style="stop-color:#FFF392"/>
		</linearGradient>
		<polygon class="st18" points="1007.93,934.35 1174.94,935.38 1173.73,1132.88 1006.71,1131.86 		"/>
	</g>
	<g>
		<defs>
			<polygon id="SVGID_58_" points="1218.83,934.97 1218.83,1130.65 1253.1,1130.65 1329.68,1130.65 1329.68,1104.62 1253.1,1104.62 
				1244.86,1104.62 1244.86,1096.5 1244.86,1053.78 1244.86,1045.82 1253.1,1045.82 1308.49,1045.82 1308.49,1019.82 
				1253.1,1019.82 1244.86,1019.82 1244.86,1011.52 1244.86,968.99 1244.86,960.84 1253.1,960.84 1329.68,960.84 1329.68,934.97 			
				"/>
		</defs>
		<clipPath id="SVGID_59_">
			<use xlink:href="#SVGID_58_"  style="overflow:visible;"/>
		</clipPath>
		
			<linearGradient id="SVGID_60_" gradientUnits="userSpaceOnUse" x1="1315.9452" y1="1963.3278" x2="1347.1538" y2="1963.3278" gradientTransform="matrix(293.3186 1.8042 1.8042 -293.3186 -389756.3438 574529.9375)">
			<stop  offset="0" style="stop-color:#A45A26"/>
			<stop  offset="0.2617" style="stop-color:#F9DC7A"/>
			<stop  offset="0.3726" style="stop-color:#FCF6AC"/>
			<stop  offset="0.4775" style="stop-color:#F9DC7A"/>
			<stop  offset="0.5061" style="stop-color:#DDBC62"/>
			<stop  offset="0.5546" style="stop-color:#BD9744"/>
			<stop  offset="0.6001" style="stop-color:#A87F33"/>
			<stop  offset="0.6412" style="stop-color:#9C732B"/>
			<stop  offset="0.6739" style="stop-color:#986E2A"/>
			<stop  offset="0.7185" style="stop-color:#9E732B"/>
			<stop  offset="0.7788" style="stop-color:#AD8333"/>
			<stop  offset="0.8482" style="stop-color:#C89F45"/>
			<stop  offset="0.9231" style="stop-color:#F7CF65"/>
			<stop  offset="0.957" style="stop-color:#FADF7B"/>
			<stop  offset="1" style="stop-color:#FFF392"/>
		</linearGradient>
		<polygon class="st19" points="1218.84,934.29 1330.89,934.98 1329.68,1131.33 1217.63,1130.64 		"/>
	</g>
	<g>
		<defs>
			<path id="SVGID_61_" d="M1400.59,1096.07V969.36v-8.11h8.39h13.67c10.42,0,20.16,1.5,28.62,4.71
				c8.86,3.46,16.63,8.55,23.19,15.01c6.65,6.74,11.51,14.42,14.67,23c3.25,8.58,4.87,18.16,4.87,28.71
				c0,10.67-1.62,20.22-4.87,28.87c-3.15,8.77-8.02,16.48-14.67,23.19c-6.77,6.55-14.33,11.36-22.88,14.57
				c-8.61,3.21-18.1,4.87-28.62,4.87h-13.98h-8.39V1096.07z M1422.84,935.44h-47.97v194.65h47.97c13.98,0,27.06-2.31,39.14-7.4
				c12.27-4.65,23.03-11.67,32.36-20.91v-0.12c8.65-8.83,15.14-19.13,19.35-31.18c4.24-12.08,6.43-24.66,6.43-37.58
				c0-12.67-2.18-25.25-6.43-37.51c-4.21-12.17-10.7-22.69-19.35-31.18v-0.12c-9.58-9.43-20.47-16.42-32.36-21.38
				c-10.21-4.15-21.47-6.55-33.74-7.27H1422.84z"/>
		</defs>
		<clipPath id="SVGID_62_">
			<use xlink:href="#SVGID_61_"  style="overflow:visible;"/>
		</clipPath>
		
			<linearGradient id="SVGID_63_" gradientUnits="userSpaceOnUse" x1="1315.9451" y1="1963.3314" x2="1347.1538" y2="1963.3314" gradientTransform="matrix(293.3186 1.8042 1.8042 -293.3186 -389756.3438 574529.9375)">
			<stop  offset="0" style="stop-color:#A45A26"/>
			<stop  offset="0.2617" style="stop-color:#F9DC7A"/>
			<stop  offset="0.3726" style="stop-color:#FCF6AC"/>
			<stop  offset="0.4775" style="stop-color:#F9DC7A"/>
			<stop  offset="0.5061" style="stop-color:#DDBC62"/>
			<stop  offset="0.5546" style="stop-color:#BD9744"/>
			<stop  offset="0.6001" style="stop-color:#A87F33"/>
			<stop  offset="0.6412" style="stop-color:#9C732B"/>
			<stop  offset="0.6739" style="stop-color:#986E2A"/>
			<stop  offset="0.7185" style="stop-color:#9E732B"/>
			<stop  offset="0.7788" style="stop-color:#AD8333"/>
			<stop  offset="0.8482" style="stop-color:#C89F45"/>
			<stop  offset="0.9231" style="stop-color:#F7CF65"/>
			<stop  offset="0.957" style="stop-color:#FADF7B"/>
			<stop  offset="1" style="stop-color:#FFF392"/>
		</linearGradient>
		<polygon class="st20" points="1374.88,934.54 1521.32,935.44 1520.11,1130.98 1373.68,1130.08 		"/>
	</g>
	<g>
		<defs>
			<path id="SVGID_64_" d="M1611.97,1037.68c5.4-14.11,10.71-27.21,16.07-39.54c5.21,12.33,10.49,25.44,15.79,39.54
				c5.37,14.14,10.67,27.12,15.85,39.42h-31.9h-31.74C1601.39,1064.8,1606.66,1051.81,1611.97,1037.68 M1544.24,1130.09h27.87
				l14.36-31.93h41.32h41.48l14.39,31.93h27.87l-83.67-196.49L1544.24,1130.09z"/>
		</defs>
		<clipPath id="SVGID_65_">
			<use xlink:href="#SVGID_64_"  style="overflow:visible;"/>
		</clipPath>
		
			<linearGradient id="SVGID_66_" gradientUnits="userSpaceOnUse" x1="1315.9451" y1="1963.3381" x2="1347.1538" y2="1963.3381" gradientTransform="matrix(293.3186 1.8042 1.8042 -293.3186 -389756.3438 574529.8125)">
			<stop  offset="0" style="stop-color:#A45A26"/>
			<stop  offset="0.2617" style="stop-color:#F9DC7A"/>
			<stop  offset="0.3726" style="stop-color:#FCF6AC"/>
			<stop  offset="0.4775" style="stop-color:#F9DC7A"/>
			<stop  offset="0.5061" style="stop-color:#DDBC62"/>
			<stop  offset="0.5546" style="stop-color:#BD9744"/>
			<stop  offset="0.6001" style="stop-color:#A87F33"/>
			<stop  offset="0.6412" style="stop-color:#9C732B"/>
			<stop  offset="0.6739" style="stop-color:#986E2A"/>
			<stop  offset="0.7185" style="stop-color:#9E732B"/>
			<stop  offset="0.7788" style="stop-color:#AD8333"/>
			<stop  offset="0.8482" style="stop-color:#C89F45"/>
			<stop  offset="0.9231" style="stop-color:#F7CF65"/>
			<stop  offset="0.957" style="stop-color:#FADF7B"/>
			<stop  offset="1" style="stop-color:#FFF392"/>
		</linearGradient>
		<polygon class="st21" points="1544.25,932.57 1712.73,933.6 1711.51,1131.11 1543.03,1130.08 		"/>
	</g>
	<g>
		<defs>
			<path id="SVGID_67_" d="M846.32,935.44l0.12,194.87h26.15v-46.59c0-0.34-0.25-0.62-0.25-1.19v-70.59c0-0.28,0.09-0.28,0.09-0.53
				v-50.43h31.99c6.37,0,12.33,0.94,17.73,2.84c5.9,1.97,10.61,4.62,14.26,8.02v0.12c3.93,4.28,6.65,8.24,8.18,11.86
				c1.72,4.21,2.68,9.02,2.68,14.08c0,5.77-0.97,10.42-2.68,14.67c-1.65,4.43-4.46,8.64-8.3,12.45c-1.37,1.53-2.78,2.56-4.21,3.62
				c-8.24,5.96-16.82,7.08-21.13,7.24h-10.77l-16.07-0.9l17.41,26.71c0,0.16,0.13,0.44,0.16,0.53l44.07,68.1h32.55l-41.1-63.88
				l-5.46-8.43l9.18-3.68c5.18-2.03,9.33-4.09,12.05-6.43c3.06-2.15,6.24-5.59,9.64-10.21c4.18-5.99,7.11-11.52,9.05-16.88
				c1.84-5.77,2.87-11.98,2.87-18.63v-5.43c0-9.02-1.37-16.54-4.06-23.03c-2.68-6.12-7.3-12.45-14.01-19.32
				c-6.43-6.09-13.73-10.64-21.91-13.89c-8.64-3.46-17.79-5.06-27.46-5.06H846.32z"/>
		</defs>
		<clipPath id="SVGID_68_">
			<use xlink:href="#SVGID_67_"  style="overflow:visible;"/>
		</clipPath>
		
			<linearGradient id="SVGID_69_" gradientUnits="userSpaceOnUse" x1="1315.9451" y1="1963.3202" x2="1347.1538" y2="1963.3202" gradientTransform="matrix(293.3186 1.8042 1.8042 -293.3186 -389756.3438 574530)">
			<stop  offset="0" style="stop-color:#A45A26"/>
			<stop  offset="0.2617" style="stop-color:#F9DC7A"/>
			<stop  offset="0.3726" style="stop-color:#FCF6AC"/>
			<stop  offset="0.4775" style="stop-color:#F9DC7A"/>
			<stop  offset="0.5061" style="stop-color:#DDBC62"/>
			<stop  offset="0.5546" style="stop-color:#BD9744"/>
			<stop  offset="0.6001" style="stop-color:#A87F33"/>
			<stop  offset="0.6412" style="stop-color:#9C732B"/>
			<stop  offset="0.6739" style="stop-color:#986E2A"/>
			<stop  offset="0.7185" style="stop-color:#9E732B"/>
			<stop  offset="0.7788" style="stop-color:#AD8333"/>
			<stop  offset="0.8482" style="stop-color:#C89F45"/>
			<stop  offset="0.9231" style="stop-color:#F7CF65"/>
			<stop  offset="0.957" style="stop-color:#FADF7B"/>
			<stop  offset="1" style="stop-color:#FFF392"/>
		</linearGradient>
		<polygon class="st22" points="846.33,934.63 979.5,935.44 978.3,1131.12 845.12,1130.3 		"/>
	</g>
	<g>
		<defs>
			<path id="SVGID_70_" d="M800.64,991.21h-26.22H657.7h-26.25h-3.93v49.65c0,12.42,2.03,23.91,6.37,34.21
				c4.12,10.36,10.8,19.94,19.44,28.4c8.46,8.89,18.04,15.48,28.84,19.82c10.17,4.09,21.63,6.37,34.08,6.37
				c12.17,0,23.47-2.28,33.86-6.49c9.92-3.96,19.54-10.52,28.74-19.38v-0.31c8.64-8.46,15.14-18.04,19.44-28.4
				c4.18-10.3,6.34-21.78,6.34-34.21v-49.65H800.64z"/>
		</defs>
		<clipPath id="SVGID_71_">
			<use xlink:href="#SVGID_70_"  style="overflow:visible;"/>
		</clipPath>
		
			<linearGradient id="SVGID_72_" gradientUnits="userSpaceOnUse" x1="1315.9451" y1="1963.2252" x2="1347.1538" y2="1963.2252" gradientTransform="matrix(293.3186 1.8042 1.8042 -293.3186 -389756.3438 574530.9375)">
			<stop  offset="0" style="stop-color:#A45A26"/>
			<stop  offset="0.2617" style="stop-color:#F9DC7A"/>
			<stop  offset="0.3726" style="stop-color:#FCF6AC"/>
			<stop  offset="0.4775" style="stop-color:#F9DC7A"/>
			<stop  offset="0.5061" style="stop-color:#DDBC62"/>
			<stop  offset="0.5546" style="stop-color:#BD9744"/>
			<stop  offset="0.6001" style="stop-color:#A87F33"/>
			<stop  offset="0.6412" style="stop-color:#9C732B"/>
			<stop  offset="0.6739" style="stop-color:#986E2A"/>
			<stop  offset="0.7185" style="stop-color:#9E732B"/>
			<stop  offset="0.7788" style="stop-color:#AD8333"/>
			<stop  offset="0.8482" style="stop-color:#C89F45"/>
			<stop  offset="0.9231" style="stop-color:#F7CF65"/>
			<stop  offset="0.957" style="stop-color:#FADF7B"/>
			<stop  offset="1" style="stop-color:#FFF392"/>
		</linearGradient>
		<polygon class="st23" points="627.53,990.12 805.48,991.21 804.62,1130.74 626.67,1129.64 		"/>
	</g>
	<g>
		<defs>
			<path id="SVGID_73_" d="M762.15,919.49c-8.02,1.69-14.95,8.43-13.89,16.17c0.9,7.8-2.22,13.7-5.71,20.07
				c-3.68,7.02-7.49,14.08-11.52,21.03l-0.72,1.56h29.99l4.02-11.64c2.97-6.18,6.49-11.8,13.23-15.89
				c7.36-4.31,8.36-14.36,4.21-22.28c-2.9-5.87-9.11-9.43-15.76-9.43C764.74,919.08,763.43,919.21,762.15,919.49"/>
		</defs>
		<clipPath id="SVGID_74_">
			<use xlink:href="#SVGID_73_"  style="overflow:visible;"/>
		</clipPath>
		
			<linearGradient id="SVGID_75_" gradientUnits="userSpaceOnUse" x1="1315.9451" y1="1963.5948" x2="1347.1538" y2="1963.5948" gradientTransform="matrix(293.3186 1.8042 1.8042 -293.3186 -389756.3438 574527.3125)">
			<stop  offset="0" style="stop-color:#A45A26"/>
			<stop  offset="0.2617" style="stop-color:#F9DC7A"/>
			<stop  offset="0.3726" style="stop-color:#FCF6AC"/>
			<stop  offset="0.4775" style="stop-color:#F9DC7A"/>
			<stop  offset="0.5061" style="stop-color:#DDBC62"/>
			<stop  offset="0.5546" style="stop-color:#BD9744"/>
			<stop  offset="0.6001" style="stop-color:#A87F33"/>
			<stop  offset="0.6412" style="stop-color:#9C732B"/>
			<stop  offset="0.6739" style="stop-color:#986E2A"/>
			<stop  offset="0.7185" style="stop-color:#9E732B"/>
			<stop  offset="0.7788" style="stop-color:#AD8333"/>
			<stop  offset="0.8482" style="stop-color:#C89F45"/>
			<stop  offset="0.9231" style="stop-color:#F7CF65"/>
			<stop  offset="0.957" style="stop-color:#FADF7B"/>
			<stop  offset="1" style="stop-color:#FFF392"/>
		</linearGradient>
		<polygon class="st24" points="730.32,918.74 786.3,919.09 785.93,978.66 729.96,978.32 		"/>
	</g>
</g>
</svg>
